<svg xmlns="http://www.w3.org/2000/svg" width="88" height="86" viewBox="0 0 88 86">
  <path d="M29.8876343 73.7521973C29.8751831 73.8114624 29.8510742 73.8658448 29.8344116 73.9234619 31.8678589 74.9435425 41.0375976 79.5419922 41.7276001 79.8503418 42.4717407 80.1833496 43.5430298 80.4318848 44.0029907 80.4318848 44.4629516 80.4318848 45.5332641 80.1833496 46.2774048 79.8503418 46.9674072 79.5419922 56.1380005 74.9434204 58.1715698 73.9234009 58.1549072 73.8657837 58.1307983 73.8114014 58.1183471 73.7521973L29.8876343 73.7521973zM31.0267944 70.2401733C33.5360107 70.3098144 37.7796631 70.3903808 44.0029907 70.3903808 50.2263183 70.3903808 54.4699707 70.3098144 56.979187 70.2401733L54.2842407 67.2214355 54.2842407 69.3225097C54.2842407 69.8308105 53.8711548 70.2443847 53.3623657 70.2443847L51.7373657 70.2443847C51.2285766 70.2443847 50.8154907 69.8308105 50.8154907 69.3225097L50.8154907 63.0935058 49.8779907 61.7927245 49.8779907 69.3225097C49.8779907 69.8308105 49.4649048 70.2443847 48.9561157 70.2443847L47.3623657 70.2443847C46.8535766 70.2443847 46.4404907 69.8308105 46.4404907 69.3225097L46.4404907 58.3381347 45.5029907 58.3381347 45.5029907 69.7443847C45.5029907 70.0207519 45.2793579 70.2443847 45.0029907 70.2443847L43.0029907 70.2443847C42.7266235 70.2443847 42.5029907 70.0207519 42.5029907 69.7443847L42.5029907 58.3381347 41.5654907 58.3381347 41.5654907 69.3225097C41.5654907 69.8308105 41.1524048 70.2443847 40.6436157 70.2443847L39.0498657 70.2443847C38.5410766 70.2443847 38.1279907 69.8308105 38.1279907 69.3225097L38.1279907 61.7927245 37.1904907 63.0935058 37.1904907 69.3225097C37.1904907 69.8308105 36.7774048 70.2443847 36.2686157 70.2443847L34.6436157 70.2443847C34.1348266 70.2443847 33.7217407 69.8308105 33.7217407 69.3225097L33.7217407 67.2214355 31.0267944 70.2401733zM27.5108032 71.8225098C26.8823242 71.8225098 26.3530273 72.2332154 26.1619873 72.7981568 26.1599121 72.8030396 26.1595459 72.8084107 26.1572876 72.8132325 26.1119385 72.9523927 26.0811157 73.0981446 26.0811157 73.2521973 26.0811157 74.0402832 26.7227173 74.6818848 27.5108032 74.6818848 28.2988891 74.6818848 28.9404907 74.0402832 28.9404907 73.2521973 28.9404907 72.4641114 28.2988892 71.8225098 27.5108032 71.8225098zM46.4649048 54.416748C46.4346314 53.9343261 46.4033814 53.4382324 46.359436 53.0266113 46.2754516 52.2463379 44.8936157 51.6818847 44.0029907 51.6818847 43.1113891 51.6818847 41.7295532 52.2463378 41.6455688 53.0266113 41.6016235 53.439209 41.5703735 53.9367676 41.5410766 54.4196777 41.5029907 55.0300293 41.4717407 55.4763183 41.4326782 55.8068847L46.5733032 55.8068847C46.5342407 55.4758301 46.5029907 55.0285645 46.4649048 54.416748zM22.7988892 45.9338379C25.3233033 46.7307129 30.8555298 46.5993652 34.631897 45.6555176 37.6826783 44.892334 39.1817017 44.3615723 39.6768189 44.1555176 39.7510377 43.0354004 39.9072877 38.4641113 39.5078736 35.1237793 39.506897 35.1169434 39.5049439 35.1105957 39.4932252 35.1032715 38.5869752 34.5773926 33.7764283 31.9528809 28.0654908 31.9528809 21.8496705 31.9528809 20.6455689 37.4211426 20.4170533 39.7717286 20.296936 41.0036621 20.1152954 45.0891113 22.7988892 45.9338379zM22.0421753 42.0516968C22.2165527 41.3383789 22.453064 40.6587525 22.6965332 39.9858399 22.9301147 39.3235474 23.2299194 38.6183472 23.6026611 37.9811402 24.3460083 36.6893922 25.4727173 35.5997315 26.7891845 34.8894654 28.1214599 34.2026368 29.5893554 33.8605347 31.0399169 33.8134156 32.4903564 33.7496949 33.9269408 33.8926392 35.3305053 34.2044678 36.710144 34.5752564 38.0933227 35.0807495 39.1901244 35.9943848 37.9732055 35.2728882 36.6067504 34.8861084 35.2359618 34.6825562 33.866455 34.479004 32.4621581 34.4251099 31.097473 34.5769654 29.7359007 34.7294923 28.4018553 35.0599976 27.2419432 35.7180176 26.0925291 36.3778687 25.1158446 37.3206787 24.4641722 38.487732 23.8014525 39.6198731 23.3449095 40.9926758 22.9594115 42.2867432 22.7842406 42.9283448 22.6436156 43.619751 22.7622069 44.1463623 22.8591918 44.6625977 23.3377074 44.8510742 24.0434569 45.0050049 25.3822631 45.293396 26.7943114 45.4319458 28.1902465 45.5355835 29.5907592 45.6588745 30.9971313 45.7242432 32.4088744 45.6506348 29.6081542 46.1501465 26.75708 46.1215821 23.8964232 45.7600708 23.5371092 45.6972656 23.1673583 45.644043 22.753662 45.4400635 22.3529662 45.2358399 22.0166625 44.8018799 21.9155272 44.3717041 21.7080688 43.5094604 21.8875732 42.7661743 22.0421753 42.0516968z"/>
  <path d="M29.7216797 70.2003174L33.8486939 65.5778809C33.9873658 65.423584 34.2080689 65.3703614 34.3994752 65.4436036 34.5938111 65.5178224 34.7217408 65.7033692 34.7217408 65.9108888L34.7217408 69.2443849 36.1904908 69.2443849 36.1904908 62.9318849C36.1904908 62.8269044 36.2236939 62.7248536 36.2852174 62.6394044L38.2227174 59.9519044C38.3496705 59.7761231 38.5733033 59.7019044 38.7813112 59.7687989 38.9883425 59.8352052 39.1279909 60.027588 39.1279909 60.2443848L39.1279909 69.2443848 40.5654909 69.2443848 40.5654909 57.8381348C40.5654909 57.5617676 40.7891237 57.3381348 41.0654909 57.3381348L43.0029909 57.3381348C43.2793581 57.3381348 43.5029909 57.5617676 43.5029909 57.8381348L43.5029909 69.2443848 44.5029909 69.2443848 44.5029909 57.8381348C44.5029909 57.5617676 44.7266237 57.3381348 45.0029909 57.3381348L46.9404909 57.3381348C47.2168581 57.3381348 47.4404909 57.5617676 47.4404909 57.8381348L47.4404909 69.2443848 48.8779909 69.2443848 48.8779909 60.2443848C48.8779909 60.0275879 49.0176393 59.8352051 49.2246706 59.7687989 49.4287722 59.7009278 49.6563112 59.7761231 49.7832644 59.9519044L51.7207644 62.6394044C51.7822878 62.7248536 51.815491 62.8269044 51.815491 62.9318849L51.815491 69.2443849 53.284241 69.2443849 53.284241 65.9108888C53.284241 65.7033693 53.4121707 65.5178224 53.6065066 65.4436036 53.799866 65.3703614 54.0195925 65.4235841 54.1572879 65.5778809L58.2843021 70.2003174C58.4486087 70.1947632 58.6025394 70.1893311 58.7393192 70.1843262 57.9780277 69.3275147 56.5817875 67.7471924 54.5227054 65.3878174 54.5225833 65.3876343 54.5224002 65.3874512 54.5222171 65.3872681 54.4235233 65.27417 54.3312991 65.1687012 54.2295535 65.052002 50.5703738 60.8532715 48.2442019 55.7043457 48.2256472 55.6584473 48.1406863 55.446045 48.058655 54.7111817 47.8447878 52.2419434 47.7344362 51.5627442 46.3233034 49.4528809 44.0029909 49.4528809 41.683655 49.4528809 40.2715456 51.5632325 40.1621706 52.2038575 39.9317018 54.9143067 39.8574831 55.465088 39.7803347 55.6589356 39.7608034 55.7067872 37.4658816 60.8195801 33.7754519 65.052002 33.6735842 65.1688233 33.5813601 65.2744141 33.4826052 65.3875733 33.4825442 65.3875733 33.4825442 65.3876954 33.4824831 65.3876954 31.42334 67.7476197 30.0280153 69.3274537 29.2666628 70.1843263 29.4034424 70.1893311 29.557373 70.1947632 29.7216797 70.2003174zM40.3799438 56.0617676C40.4473266 55.8879395 40.5020141 55.0031738 40.5430297 54.357666 40.5733031 53.8591308 40.6055297 53.3459472 40.6514281 52.920166 40.805725 51.4787597 42.7315062 50.6818847 44.0029906 50.6818847 45.274475 50.6818847 47.1992797 51.4787597 47.3535765 52.920166 47.3994749 53.3449707 47.4317015 53.8566894 47.4629515 54.354248 47.5010374 54.9645996 47.5586546 55.8874511 47.6348265 56.0788574 47.7217406 56.2336426 47.7158812 56.4147949 47.6260374 56.5681152 47.5371702 56.7214355 47.3682249 56.8068847 47.1904905 56.8068847L40.8154905 56.8068847C40.6377561 56.8068847 40.4736936 56.7126464 40.3838499 56.5593261 40.2940062 56.4060058 40.2930298 56.2165527 40.3799438 56.0617676zM58.8311157 67.427002L56.8198852 66.4952393C58.3263549 68.2135621 59.3189086 69.3326416 59.8082885 69.8815918L58.8311157 67.427002zM58.0688477 71.2080078C58.0683594 71.2080078 58.0679322 71.2082519 58.0674439 71.2082519 58.0671387 71.2082519 58.0668946 71.2080688 58.0665894 71.2080688 55.7796631 71.2822265 51.2191773 71.3903808 44.0029908 71.3903808 35.1747437 71.3903808 30.3023072 71.2282714 28.7339478 71.1649169 29.314087 71.5062865 29.7449952 72.0736083 29.8876343 72.7521972L58.1183472 72.7521972C58.2609864 72.0736083 58.6918946 71.5062866 59.2720337 71.1649169 58.986084 71.1764526 58.5786133 71.1914673 58.0688477 71.2080078zM29.1748657 67.427002L28.1960449 69.8834839C28.6846313 69.3348999 29.677124 68.21521 31.1845093 66.4957886L29.1748657 67.427002z"/>
  <circle cx="60.495" cy="73.252" r="1.43"/>
  <path d="M83.406311,59.138916 C80.6143188,51.1750488 73.0869751,35.6604004 73.0108032,35.5046387 C72.9902954,35.4602051 72.9746704,35.4133301 72.9668579,35.364502 C72.9639282,35.3425293 72.8760376,34.7658692 72.3379516,29.2722168 C70.3809203,13.9899902 70.1152953,13.1467285 65.2305297,6.7351074 C62.3291625,2.9270019 56.1768188,0.9934082 47.88385,1.2961426 C47.7061156,1.3024903 47.5772094,1.3068848 47.5029906,1.3068848 C47.2266234,1.3068848 47.0029906,1.083252 47.0029906,0.8068848 C47.0029906,0.5100098 45.5918578,0.1037598 44.0029906,0.0681153 C42.4141234,0.1037598 41.0029906,0.5100098 41.0029906,0.8068848 C41.0029906,1.083252 40.7793578,1.3068848 40.5029906,1.3068848 C40.4287718,1.3068848 40.2998656,1.3024903 40.1211547,1.2961426 C39.5625609,1.2756348 39.0108031,1.2653809 38.4717406,1.2653809 C31.0186156,1.2653809 25.4805297,3.1848145 22.7754515,6.7351075 C17.8906859,13.1467286 17.6250609,13.9899903 15.6650999,29.2868653 C15.1299436,34.7663575 15.0410765,35.3435059 15.0371702,35.3654786 C15.0303343,35.4138184 15.0147093,35.4606934 14.9942014,35.5046388 C14.9180295,35.6604005 7.3906858,51.1755372 4.5996701,59.1389161 C3.7686154,61.5104981 3.0840451,63.4128419 2.5313107,64.9470216 C1.6640622,67.3583375 1.1234738,68.8665773 0.8609005,69.8361205 C1.0086056,69.8041383 1.1717526,69.7823487 1.3574825,69.7770997 C1.5586544,69.18042 1.78717,68.4558106 2.0547481,67.6101075 C3.6914669,62.4255372 6.7383419,52.7746583 13.6484981,40.3142091 C19.3037715,30.9738771 22.7500606,29.2233888 26.6719356,29.3068849 C30.34967,29.3991701 32.2363887,29.9855958 34.8477169,30.7976076 L35.1514278,30.8918459 C37.0206905,31.4722902 38.6658931,31.8878786 39.4988399,32.0884401 L40.1612545,17.232361 L40.4917599,9.4998781 C40.5646969,6.9230348 40.6753537,4.3419191 40.5443112,1.7651979 C40.7587277,4.3381959 40.731506,6.9243166 40.741821,9.5045778 L40.6611325,17.2465212 L40.4783932,32.1422732 C41.1961056,32.0571292 42.5027462,31.931885 44.0029904,31.931885 C45.5020138,31.931885 46.8088376,32.0570681 47.5269162,32.1421511 L47.3441162,17.246521 L47.2634277,9.5045776 C47.2738037,6.9243164 47.246582,4.3381958 47.4609375,1.7651977 C47.329895,4.3419189 47.4405518,6.9230346 47.5134888,9.4998779 L47.8439942,17.2323608 L48.5064698,32.088562 C49.3396607,31.8878174 50.9861451,31.4717407 52.8545533,30.8918457 L53.1582642,30.7976074 C55.7695923,29.9855957 57.6563111,29.3991699 61.3340455,29.3068847 C65.3174439,29.2023925 68.701233,30.9748535 74.3467408,40.2980956 C81.2666627,52.7746581 84.3135377,62.425537 85.9502564,67.6101073 C86.2178345,68.4558104 86.4463502,69.1804198 86.647522,69.7770995 C86.8340454,69.7823485 86.9976197,69.8043822 87.1456909,69.8361205 C86.8836059,68.8722533 86.3434448,67.364685 85.475647,64.9523925 C84.9229126,63.416748 84.2383423,61.5129395 83.406311,59.138916 Z M34.5933838,24.1820679 C33.4859619,23.9365235 32.3910523,23.6732788 31.2913208,23.5402222 C30.1977539,23.4198609 29.0814209,23.3206177 28.0012817,23.4508667 L27.1905517,23.5168457 C26.920227,23.5368042 26.6605834,23.6254883 26.3952026,23.6756592 L25.6032104,23.8516236 L24.8422241,24.1346436 C22.8016357,24.8703003 21.0067138,26.2150879 19.4888305,27.8236084 C18.706665,28.6112671 18.0307006,29.5046997 17.3894042,30.4216919 C16.7262572,31.3289185 16.1586303,32.3030396 15.6276244,33.3068848 C16.3083495,31.1338501 17.4495848,29.1021729 18.9152221,27.3163452 C20.3591918,25.5143432 22.274414,24.0256348 24.4930419,23.1982422 C26.7180785,22.3788452 29.1648559,22.3051148 31.4189452,22.7816773 C33.6934813,23.2633668 35.7661132,24.1293946 37.9609374,24.7235718 C36.8275757,24.6262207 35.7081299,24.3989868 34.5933838,24.1820679 Z M70.6158447,30.4216919 C69.9745483,29.5046997 69.298645,28.6112671 68.5164795,27.8236084 C66.9985962,26.2150879 65.2036133,24.8703003 63.1630249,24.1346436 L62.4020386,23.8516236 L61.6100464,23.6756592 C61.3446655,23.6254883 61.085022,23.5368042 60.8146973,23.5168457 L60.0039673,23.4508667 C58.9238892,23.3206177 57.8074951,23.4198608 56.7139282,23.5402222 C55.6141968,23.6732788 54.5192871,23.9365235 53.4119262,24.1820679 C52.2971191,24.3989868 51.1777343,24.6262207 50.0443115,24.7235718 C52.2391357,24.1293946 54.3117676,23.2633667 56.5863037,22.7816773 C58.8403931,22.3051148 61.2871704,22.3788453 63.5122681,23.1982422 C65.730835,24.0256348 67.6460572,25.5143433 69.0900269,27.3163452 C70.5556641,29.1021728 71.6969605,31.1338501 72.3776246,33.3068848 C71.8466187,32.3030396 71.2789917,31.3289185 70.6158447,30.4216919 Z"/>
  <path d="M86.3320923,70.7844238 C86.1065064,70.7971191 85.8965454,70.6647949 85.8223267,70.451416 C85.5899048,69.7897949 85.3213501,68.9387207 84.9971314,67.9113769 C83.3711548,62.7600097 80.3438111,53.1716308 73.4815064,40.7995605 C68.0986939,31.9084472 64.9805298,30.2116699 61.3594361,30.3068847 C57.8203736,30.3952636 55.9893189,30.9645995 53.4551392,31.7521972 L53.1514283,31.8469238 C50.444397,32.6872558 48.1651002,33.1960449 48.1426392,33.201416 C48.0820923,33.2145996 48.0195923,33.217041 47.9580689,33.2072754 C47.9404908,33.2043457 46.1436158,32.9318848 44.0029908,32.9318848 C41.8613892,32.9318848 40.0654908,33.2043457 40.0479127,33.2072754 C39.9854127,33.2165527 39.9229127,33.2145996 39.8633424,33.201416 C39.8408815,33.1960449 37.5615846,32.6872558 34.8545533,31.8469238 L34.5508424,31.7521972 C32.0166627,30.9645995 30.185608,30.3952636 26.6465455,30.3068847 C23.0127564,30.2058105 19.9072877,31.9079589 14.513733,40.8156738 C7.6611939,53.1716308 4.6338502,62.7600097 3.0078736,67.9113769 C2.6836548,68.9387207 2.4151002,69.7897949 2.1826783,70.451416 C2.107483,70.6647949 1.8926392,70.798584 1.6729127,70.7844238 C1.1154176,70.741455 0.8330689,70.8598633 0.7118531,70.9681396 C1.1801148,71.6101074 5.5044556,73.5578002 21.5078736,73.7233886 C21.7500611,73.72583 21.9561158,73.9016113 21.9961549,74.1398925 C22.3916627,76.4797363 27.5498658,85.9318847 44.0029908,85.9318847 C60.4561158,85.9318847 65.6143189,76.4797363 66.0098267,74.1398925 C66.0498658,73.9016112 66.2559205,73.72583 66.498108,73.7233886 C82.4395142,73.5584717 86.7913208,71.625 87.288147,70.9641724 C87.1636353,70.8582764 86.880188,70.7462158 86.3320923,70.7844238 Z M47.5059204,35.0031738 C47.5440063,34.6813965 47.7276001,34.4025879 48.0098267,34.2390136 C49.3379517,33.4680175 54.1221314,30.9528808 59.9404908,30.9528808 C67.1709596,30.9528808 68.3838502,37.6286621 68.5840455,39.6750488 C68.7217408,41.0959472 68.9092408,45.8166504 65.5068971,46.8879394 C64.2891237,47.2717285 62.4766237,47.4592285 60.4883424,47.4592285 C58.0440065,47.4592285 55.333069,47.1755371 53.1318971,46.6252441 C51.1016237,46.1179199 47.6582643,45.1926269 47.4102174,44.697998 C47.256897,44.3864746 47.0762329,38.583252 47.5059204,35.0031738 Z M57.2193604,51.9771729 L53.2194214,51.2510987 C52.5462647,51.1409913 51.8894653,50.9393922 51.2488403,51.0191041 C50.6019897,51.0781861 49.9779663,51.4230348 49.5651245,51.9631349 C49.8847046,51.3571779 50.5175781,50.9254152 51.210022,50.7785036 C51.9245606,50.6412355 52.6129761,50.8128664 53.2780152,50.8728029 C54.6264039,51.0408937 55.9663697,51.2656252 57.3077393,51.4855959 C58.6417237,51.746155 59.9779053,52.0025637 61.2971192,52.3425905 C62.6029053,52.70282 63.9558716,53.0280763 65.1276246,53.7443849 C64.5104371,53.4583742 63.8485108,53.3057863 63.1936036,53.145569 C62.5371095,52.9863283 61.876648,52.8427736 61.21167,52.7175905 C59.8843994,52.4574585 58.5557251,52.1983643 57.2193604,51.9771729 Z M60.3567505,65.8693848 C58.7694702,63.8231202 57.1660156,61.8132325 55.4324951,59.9089356 C54.5900268,58.9365235 53.7002563,58.0064087 52.7940674,57.0974732 C52.3369141,56.6532593 51.8759155,56.1886597 51.3579712,55.8532715 C50.8273926,55.5270996 50.2122192,55.2528076 49.5651245,55.3381348 C50.2010498,55.1375122 50.8864136,55.3706055 51.4750366,55.6395874 C52.0709228,55.963623 52.5548706,56.3989258 53.0550537,56.8173218 C54.031311,57.6791382 54.9239502,58.6234741 55.8048706,59.5761109 C56.65448,60.5568238 57.4879761,61.5523072 58.2526855,62.600647 C59.0161743,63.6491089 59.7381592,64.7295532 60.3567505,65.8693848 Z M44.0026245,34.8068848 L46.3984375,34.8068848 L46.0751953,36.7363282 L44.0026245,36.7363282 L41.9301147,36.7363282 L41.6068115,34.8068848 L44.0026245,34.8068848 Z M45.7734375,39.1818848 L44.0026245,39.1818848 L42.2318115,39.1818848 L42.0651245,37.7235718 L44.0026245,37.7235718 L45.9401245,37.7235718 L45.7734375,39.1818848 Z M45.9401245,41.5152588 L44.0026245,41.5152588 L42.0651245,41.5152588 L42.2496948,39.9527588 L44.0026245,39.9527588 L45.7555542,39.9527588 L45.9401245,41.5152588 Z M42.2219238,42.7607422 L42.5604248,42.5039063 C42.7151489,42.3945313 42.8835449,42.3230591 43.0490723,42.2715455 C43.3816529,42.1755982 43.7143555,42.1711427 44.0026245,42.166504 C44.2908935,42.1723023 44.6237793,42.17511 44.9559326,42.2725221 C45.1213989,42.3239747 45.2897339,42.3953859 45.444397,42.5045778 L45.7827759,42.7617189 C46.2494507,43.0816652 46.7302246,43.4255373 47.1901245,43.8068849 C46.6025391,43.6853639 46.0383911,43.5183717 45.4925537,43.2673341 C45.3681641,43.2172853 45.1846313,43.1129152 45.0944824,43.058838 C45.0042114,43.0107423 44.8966675,42.9791871 44.7811889,42.9587403 C44.5484618,42.9118043 44.2940063,42.9063721 44.0026244,42.9160157 C43.7113646,42.9075318 43.456726,42.911377 43.2243041,42.9597169 C43.1089477,42.9801026 43.0014647,43.0115357 42.9112548,43.0595094 C42.8211059,43.1134645 42.6379394,43.2187501 42.5132445,43.2683107 C41.9675292,43.5197145 41.4031371,43.6860963 40.8151244,43.8068849 C41.2746582,43.4247437 41.755188,43.0803223 42.2219238,42.7607422 Z M19.4209595,39.6750488 C19.6211548,37.6286621 20.8340454,30.9528808 28.0654908,30.9528808 C33.8828736,30.9528808 38.6670533,33.4680175 39.9951783,34.2385253 C40.2764283,34.4020995 40.4600221,34.6799316 40.5000611,35.0012206 C40.5000611,35.0021972 40.5000611,35.0026854 40.5000611,35.0031737 C40.9307252,38.5993651 40.7471314,44.3962401 40.5947877,44.6979979 C40.3467408,45.1926268 36.904358,46.1179198 34.8740846,46.625244 C32.6729127,47.175537 29.9609987,47.4592284 27.5166627,47.4592284 C25.5283814,47.4592284 23.716858,47.2717284 22.498108,46.8879393 C19.0977173,45.8171387 19.2832642,41.0964355 19.4209595,39.6750488 Z M36.7564697,51.019104 C36.1157837,50.9393921 35.4589843,51.1409912 34.7858276,51.2510986 L30.7858886,51.9771728 C29.4495849,52.1983642 28.1208495,52.4574584 26.793579,52.7175903 C26.128601,52.8427734 25.4681395,52.9863281 24.8116454,53.1455688 C24.1567992,53.3057861 23.4948729,53.458374 22.8776244,53.7443847 C24.0494384,53.0280761 25.4024047,52.7028198 26.7081908,52.3425903 C28.0273436,52.0025634 29.3635253,51.7461548 30.6975096,51.4855957 C32.0388792,51.265625 33.378845,51.0408936 34.7272337,50.8728027 C35.3923338,50.8128662 36.0806883,50.6412353 36.7952879,50.7785034 C37.4877317,50.925415 38.1205442,51.3571777 38.4401243,51.9631347 C38.0272827,51.4230347 37.4032593,51.078186 36.7564697,51.019104 Z M38.4401245,55.3381348 C37.7930298,55.2528077 37.1778564,55.5270996 36.6473389,55.8532715 C36.1293335,56.1886597 35.668335,56.6532593 35.2111817,57.0974732 C34.3049927,58.0064087 33.4152833,58.9365235 32.572754,59.9089356 C30.8392335,61.8132325 29.2357789,63.8231202 27.6485597,65.8693848 C28.267151,64.7295533 28.9890748,63.6491089 29.7525636,62.600647 C30.5172731,61.5523072 31.3507692,60.5568238 32.2004396,59.5761109 C33.08136,58.6234742 33.9739992,57.6791382 34.9501955,56.8173218 C35.4503786,56.3989258 35.9343264,55.9636231 36.5302736,55.6395874 C37.1188354,55.3706055 37.8042603,55.1375122 38.4401245,55.3381348 Z M63.0125122,72.0186157 L62.8258667,72.6038818 C62.8838501,72.8116455 62.9248657,73.026184 62.9248657,73.2521972 C62.9248657,74.592041 61.8350219,75.6818847 60.4951782,75.6818847 C59.7490844,75.6818847 59.0889282,75.3367309 58.6428833,74.8059081 C56.6125488,75.8242797 47.4061279,80.4413451 46.6856079,80.7634276 C45.8760376,81.1257323 44.647522,81.4318846 44.0029907,81.4318846 C43.359436,81.4318846 42.1299438,81.1257323 41.3193969,80.7634276 C40.5988769,80.4413451 31.3932494,75.8242797 29.3630981,74.8059081 C28.9170532,75.3367309 28.2568969,75.6818847 27.5108032,75.6818847 C26.1709594,75.6818847 25.0811157,74.5920409 25.0811157,73.2521972 C25.0811157,73.0266113 25.1219482,72.8123168 25.1797485,72.6049194 L24.9927978,72.0186157 L18.5338745,63.3381347 L24.2564697,69.7095336 L22.9970703,65.7602538 L22.9780884,65.7766112 L19.2213745,60.8381346 L22.5043945,64.2153319 L18.8463745,52.7443846 L23.4952392,65.234619 L23.5464477,65.2872923 L23.5225219,65.3079222 L25.8062743,71.4437865 C25.819702,71.4606932 25.8272094,71.4799803 25.8381957,71.4980468 C26.2626342,71.0932616 26.8309325,70.8411864 27.4592895,70.8276977 L27.2502441,70.1929931 C27.1877441,70.1057739 27.1501464,70.0044555 27.1522216,69.8955688 L19.6588744,47.1506347 L27.6463012,68.5604247 L28.3193969,66.8718261 C28.3672485,66.7531738 28.4580688,66.6569823 28.5742797,66.6032714 L32.8045653,64.6432494 C32.8801879,64.5565184 32.9440917,64.4835814 33.0215453,64.3947753 C36.5938109,60.297119 38.8330687,55.331787 38.8516234,55.2854003 C38.9180297,55.0334472 39.0947875,52.9616698 39.1709593,52.0769042 C39.345764,51.0485839 41.0859984,48.4528808 44.0029906,48.4528808 C46.9219359,48.4528808 48.6611937,51.0485839 48.8291625,52.0354003 C48.8311156,52.0490722 48.8399047,52.1418456 48.8408813,52.1555175 C48.921936,53.0930175 49.0908813,55.0437011 49.1631469,55.3127441 C49.1729125,55.3327636 51.4561157,60.3479004 54.9834594,64.3947754 C55.060852,64.4835816 55.1247558,64.5565186 55.2003783,64.6431885 L59.4317015,66.6032715 C59.5479124,66.6569824 59.6387328,66.7531738 59.6865843,66.8718262 L60.3590697,68.5603028 L68.3463744,47.1506347 L60.8528441,69.8962403 C60.8548583,70.0043946 60.8175047,70.1048585 60.7555541,70.1916505 L60.5460204,70.8276368 C61.1733397,70.8408814 61.7408446,71.0922852 62.1651,71.4957887 C62.1732177,71.482361 62.1751708,71.4669801 62.1846923,71.4541627 C62.1906737,71.4461671 62.1973266,71.4384767 62.2037963,71.4307862 L64.482727,65.3079224 L64.4588012,65.2872925 L64.5100097,65.2346192 L69.1588744,52.7443848 L65.5009154,64.215271 L68.7838744,60.8381348 L65.0271605,65.7766114 L65.0082396,65.760315 L63.7489012,69.7094727 L69.4713743,63.3381348 L63.0125122,72.0186157 Z"/>
  <path d="M53.3740845,45.6555176 C57.1524048,46.5993653 62.6797486,46.7307129 65.2061158,45.9338379 C67.8916627,45.0886231 67.7080689,41.0036621 67.5879517,39.7717285 C67.3594361,37.4211426 66.1553345,31.9528808 59.9404908,31.9528808 C54.2285767,31.9528808 49.4180299,34.5773925 48.5117799,35.1037597 C48.5117799,35.1037597 48.498108,35.1218261 48.498108,35.1223144 C48.0996705,38.4494628 48.2539674,43.0319824 48.3281861,44.1555175 C48.8242798,44.3620605 50.3233032,44.8928223 53.3740845,45.6555176 Z M52.6748047,34.2044678 C54.0783081,33.8926392 55.5149536,33.7496949 56.965332,33.8134156 C58.4159546,33.8605347 59.883789,34.2026368 61.2160644,34.8894654 C62.5325927,35.5997315 63.6592407,36.6893922 64.4025878,37.9811402 C64.7753905,38.6183472 65.0751952,39.3235474 65.3087768,39.9858399 C65.552185,40.6587525 65.7886962,41.338379 65.9630737,42.0516968 C66.1176758,42.7661743 66.2972412,43.5094605 66.0897216,44.3717041 C65.9885863,44.8018799 65.6522826,45.2358398 65.2516479,45.4400635 C64.8379516,45.644043 64.4681396,45.6972656 64.1088256,45.7600708 C61.2481689,46.121582 58.3971557,46.1501465 55.5963744,45.6506348 C57.0081786,45.7242432 58.4144896,45.6588745 59.8150023,45.5355835 C61.2109374,45.4319458 62.6230467,45.293396 63.9617919,45.0050049 C64.6676024,44.8510742 65.146057,44.6625977 65.2430419,44.1463623 C65.3616332,43.619751 65.2210082,42.9283447 65.0458373,42.2867432 C64.6603393,40.9926758 64.2038573,39.6198731 63.5410766,38.487732 C62.8894042,37.3206788 61.9127807,36.3778687 60.7633056,35.7180176 C59.6033935,35.0599976 58.2694091,34.7294922 56.9077758,34.5769654 C55.5430907,34.4251099 54.1387939,34.479004 52.769287,34.6825562 C51.3984984,34.8861084 50.0320433,35.2728882 48.8151244,35.9943848 C49.9119263,35.0807495 51.295166,34.5752563 52.6748047,34.2044678 Z"/>
</svg>
